<?xml version="1.0" encoding="utf-8"?>
<!-- Generator: Adobe Illustrator 27.2.0, SVG Export Plug-In . SVG Version: 6.00 Build 0)  -->
<svg version="1.1" id="Layer_1" xmlns="http://www.w3.org/2000/svg" xmlns:xlink="http://www.w3.org/1999/xlink" x="0px" y="0px"
	 viewBox="0 0 850 850" style="enable-background:new 0 0 850 850;" xml:space="preserve">
<style type="text/css">
	.st0{opacity:0.57;fill:#513907;enable-background:new    ;}
	.st1{fill:#FFFFFF;}
	.st2{fill:#D8A72B;}
	.st3{fill:#FFA733;}
	.st4{fill:url(#SVGID_1_);}
	.st5{fill:#F47A27;}
	.st6{fill:url(#SVGID_00000174577010809848031920000004581566241589640349_);}
	.st7{fill:url(#SVGID_00000044174054901103645030000006275718177906466221_);}
</style>
<g>
	<circle class="st0" cx="829.2" cy="440.7" r="10.3"/>
	<g>
		
			<image style="overflow:visible;enable-background:new    ;" width="34" height="34" xlink:href="8C3577E6.png"  transform="matrix(-6.743144e-11 1.5018 -1.5018 -6.743144e-11 856.4056 413.9297)">
		</image>
		<g>
			<circle class="st1" cx="831.2" cy="439.3" r="10.3"/>
		</g>
	</g>
</g>
<path class="st2" d="M432.4,425c0,4.1-3.4,7.4-7.4,7.4c-4.1,0-7.4-3.4-7.4-7.4c0-4,3.4-7.4,7.4-7.4C429.1,417.5,432.4,421,432.4,425
	z"/>
<path class="st3" d="M484.8,425c0,33.6-27.5,59.8-59.8,59.8c-33.6,0-59.8-27.5-59.8-59.8s27.5-59.8,59.8-59.8
	C458.6,364.6,484.8,392.8,484.8,425z"/>
<linearGradient id="SVGID_1_" gradientUnits="userSpaceOnUse" x1="3.3864" y1="-221.8504" x2="846.6136" y2="-221.8504" gradientTransform="matrix(1 0 0 -1 0 203.1496)">
	<stop  offset="0" style="stop-color:#B58D33"/>
	<stop  offset="0.1173" style="stop-color:#F9E169"/>
	<stop  offset="0.2626" style="stop-color:#B58D33"/>
	<stop  offset="0.4385" style="stop-color:#FFFA8C"/>
	<stop  offset="0.6257" style="stop-color:#B56A33"/>
	<stop  offset="0.8715" style="stop-color:#F9E169"/>
	<stop  offset="1" style="stop-color:#FFFA8C"/>
</linearGradient>
<path class="st4" d="M425,3.4C192.1,3.4,3.4,192.1,3.4,425S192.1,846.6,425,846.6S846.6,657.9,846.6,425S657.9,3.4,425,3.4z
	 M425,811.7C211.2,811.7,38.3,638.8,38.3,425S211.2,38.4,425,38.4s386.7,183.2,386.7,386.7C811.7,638.9,638.8,811.7,425,811.7z"/>
<g>
	<circle class="st0" cx="423.6" cy="20.4" r="12.2"/>
	<g>
		
			<image style="overflow:visible;enable-background:new    ;" width="34" height="34" xlink:href="8C3577E6.png"  transform="matrix(1.7716 0 0 1.7716 391.9686 -11.5769)">
		</image>
		<g>
			<circle class="st1" cx="421.9" cy="18.2" r="12.2"/>
		</g>
	</g>
</g>
<g>
	<circle class="st0" cx="221.3" cy="74.3" r="12.2"/>
	<g>
		
			<image style="overflow:visible;enable-background:new    ;" width="34" height="34" xlink:href="8C3577E6.png"  transform="matrix(1.5341 -0.8859 0.8859 1.5341 177.8751 62.3738)">
		</image>
		<g>
			<circle class="st1" cx="218.5" cy="73.2" r="12.2"/>
		</g>
	</g>
</g>
<g>
	<circle class="st0" cx="73.2" cy="222.2" r="12.2"/>
	<g>
		
			<image style="overflow:visible;enable-background:new    ;" width="34" height="34" xlink:href="8C3577E6.png"  transform="matrix(0.8859 -1.5341 1.5341 0.8859 29.4403 233.4638)">
		</image>
		<g>
			<circle class="st1" cx="70.1" cy="222.4" r="12.2"/>
		</g>
	</g>
</g>
<g>
	<circle class="st0" cx="18.3" cy="424.2" r="12.2"/>
	<g>
		
			<image style="overflow:visible;enable-background:new    ;" width="34" height="34" xlink:href="8C3577E6.png"  transform="matrix(7.954105e-11 -1.7716 1.7716 7.954105e-11 -13.563 455.8496)">
		</image>
		<g>
			<circle class="st1" cx="16.3" cy="426.1" r="12.2"/>
		</g>
	</g>
</g>
<g>
	<circle class="st0" cx="72.4" cy="626.6" r="12.2"/>
	<g>
		
			<image style="overflow:visible;enable-background:new    ;" width="34" height="34" xlink:href="8C3577E6.png"  transform="matrix(-0.8859 -1.5341 1.5341 -0.8859 60.3879 669.943)">
		</image>
		<g>
			<circle class="st1" cx="71.3" cy="629.1" r="12.2"/>
		</g>
	</g>
</g>
<g>
	<circle class="st0" cx="220.1" cy="774.7" r="12.2"/>
	<g>
		
			<image style="overflow:visible;enable-background:new    ;" width="34" height="34" xlink:href="8C3577E6.png"  transform="matrix(-1.5341 -0.8859 0.8859 -1.5341 231.4779 818.3781)">
		</image>
		<g>
			<circle class="st1" cx="220.5" cy="777.5" r="12.2"/>
		</g>
	</g>
</g>
<g>
	<circle class="st0" cx="422.3" cy="829.3" r="12.2"/>
	<g>
		
			<image style="overflow:visible;enable-background:new    ;" width="34" height="34" xlink:href="8C3577E6.png"  transform="matrix(-1.7716 0 0 -1.7716 453.8636 861.381)">
		</image>
		<g>
			<circle class="st1" cx="424" cy="831.6" r="12.2"/>
		</g>
	</g>
</g>
<g>
	<circle class="st0" cx="628.3" cy="776.5" r="12.2"/>
	<g>
		
			<image style="overflow:visible;enable-background:new    ;" width="34" height="34" xlink:href="8C3577E6.png"  transform="matrix(-1.5341 0.8859 -0.8859 -1.5341 671.6604 788.5461)">
		</image>
		<g>
			<circle class="st1" cx="630.8" cy="777.7" r="12.2"/>
		</g>
	</g>
</g>
<g>
	<circle class="st0" cx="777.8" cy="629.4" r="12.2"/>
	<g>
		
			<image style="overflow:visible;enable-background:new    ;" width="34" height="34" xlink:href="8C3577E6.png"  transform="matrix(-0.8859 1.5341 -1.5341 -0.8859 821.5487 617.9444)">
		</image>
		<g>
			<circle class="st1" cx="780.7" cy="629" r="12.2"/>
		</g>
	</g>
</g>
<g>
	<circle class="st0" cx="773.5" cy="223.3" r="12.2"/>
	<g>
		
			<image style="overflow:visible;enable-background:new    ;" width="34" height="34" xlink:href="8C3577E6.png"  transform="matrix(0.8859 1.5341 -1.5341 0.8859 785.4442 179.8611)">
		</image>
		<g>
			<circle class="st1" cx="774.6" cy="220.6" r="12.2"/>
		</g>
	</g>
</g>
<g>
	<circle class="st0" cx="625.8" cy="75.2" r="12.2"/>
	<g>
		
			<image style="overflow:visible;enable-background:new    ;" width="34" height="34" xlink:href="8C3577E6.png"  transform="matrix(1.5341 0.8859 -0.8859 1.5341 614.3544 31.4263)">
		</image>
		<g>
			<circle class="st1" cx="625.4" cy="72.2" r="12.2"/>
		</g>
	</g>
</g>
<path class="st5" d="M473,425c0,27-22.1,48-48,48c-27,0-48-22.1-48-48c0-25.9,22.1-48,48-48C452,376.5,473,399.1,473,425z"/>
<g>
	<g>
		<path class="st1" d="M448.7,422.1c-0.3-0.2-0.6-0.4-0.7-0.7c-0.2-0.3-0.3-0.7-0.3-1.1v-1.5c0-0.4,0.1-0.8,0.3-1.1
			c0.2-0.3,0.4-0.6,0.7-0.7c0.3-0.2,0.7-0.3,1.1-0.3h0.8c0.4,0,0.7,0.1,1.1,0.3c0.3,0.2,0.5,0.4,0.7,0.7c0.2,0.3,0.3,0.7,0.3,1.1
			h-1.1c0-0.3-0.1-0.6-0.3-0.8c-0.2-0.2-0.4-0.3-0.7-0.3h-0.8c-0.3,0-0.5,0.1-0.7,0.3s-0.3,0.5-0.3,0.9v1.4c0,0.4,0.1,0.6,0.3,0.9
			c0.2,0.2,0.4,0.3,0.7,0.3h0.9c0.3,0,0.5-0.1,0.7-0.3c0.2-0.2,0.3-0.5,0.3-0.9h1.1c0,0.4-0.1,0.8-0.3,1.1c-0.2,0.3-0.4,0.6-0.7,0.8
			c-0.3,0.2-0.7,0.3-1.1,0.3h-0.9C449.4,422.3,449,422.2,448.7,422.1z"/>
		<path class="st1" d="M456.5,421h-2.1l-0.5,1.3h-1.1l2.2-5.6h0.5c0.3,0,0.6,0.2,0.7,0.5l2,5.1H457L456.5,421z M454.7,420h1.5
			l-0.7-2h0L454.7,420z"/>
		<path class="st1" d="M458.7,416.7h3c0.5,0,0.9,0.1,1.2,0.4c0.3,0.3,0.4,0.6,0.4,1v0.6c0,0.3-0.1,0.5-0.2,0.7
			c-0.2,0.2-0.4,0.4-0.7,0.5v0c0.2,0.1,0.3,0.2,0.4,0.4c0.1,0.1,0.2,0.3,0.3,0.6l0.4,1.4h-1.1l-0.4-1.3c-0.1-0.2-0.2-0.4-0.3-0.5
			c-0.1-0.1-0.3-0.2-0.5-0.2h-1.3v2h-1.1V416.7z M461.4,419.3c0.2,0,0.4-0.1,0.5-0.2c0.1-0.1,0.2-0.3,0.2-0.5v-0.5
			c0-0.2,0-0.3-0.1-0.4c-0.1-0.1-0.2-0.1-0.4-0.1h-1.9v1.7H461.4z"/>
		<path class="st1" d="M464.3,422.1c-0.1-0.1-0.2-0.3-0.2-0.5v-4.8h4.3v1h-3.2v1.3h2.9v1h-2.9v1.4h3.2v1h-3.5
			C464.6,422.3,464.4,422.2,464.3,422.1z"/>
	</g>
	<g>
		
			<linearGradient id="SVGID_00000134223679413534020700000016248165207086865086_" gradientUnits="userSpaceOnUse" x1="-10663.8711" y1="-14858.8721" x2="-10630.6934" y2="-14858.8721" gradientTransform="matrix(-1 0 0 -1 -10216.0781 -14439.4023)">
			<stop  offset="0" style="stop-color:#FFFFFF;stop-opacity:0"/>
			<stop  offset="1" style="stop-color:#FFFFFF"/>
		</linearGradient>
		<polygon style="fill:url(#SVGID_00000134223679413534020700000016248165207086865086_);" points="447.8,416.7 414.6,416.7 
			414.6,422.2 447.8,422.2 		"/>
		<rect x="414.6" y="416.7" class="st1" width="5.5" height="5.5"/>
		
			<linearGradient id="SVGID_00000036942238203875717600000003779112633082473650_" gradientUnits="userSpaceOnUse" x1="-10630.6934" y1="-14858.8721" x2="-10597.7568" y2="-14858.8721" gradientTransform="matrix(-1 0 0 -1 -10216.0781 -14439.4023)">
			<stop  offset="0" style="stop-color:#FFFFFF;stop-opacity:0"/>
			<stop  offset="1" style="stop-color:#FFFFFF"/>
		</linearGradient>
		<polygon style="fill:url(#SVGID_00000036942238203875717600000003779112633082473650_);" points="414.6,416.7 381.7,416.7 
			381.7,422.2 414.6,422.2 		"/>
		<polygon class="st1" points="445,423 445,439.6 417.4,439.6 417.4,423 422.9,423 422.9,434.1 439.5,434.1 439.5,428.6 
			428.4,428.6 428.4,423 		"/>
		<rect x="381.7" y="416.7" class="st1" width="5.5" height="5.5"/>
		<g>
			<rect x="417.4" y="410.4" class="st1" width="27.6" height="5.5"/>
			<rect x="384.4" y="410.4" class="st1" width="27.6" height="5.5"/>
		</g>
		<polygon class="st1" points="412.1,423 412.1,428.6 390,428.6 390,439.6 384.4,439.6 384.4,423 		"/>
	</g>
</g>
<g>
	<g>
		
			<image style="overflow:visible;opacity:0.33;" width="619" height="389" xlink:href="2E2EAC8E.png"  transform="matrix(0.24 0 0 0.24 708.5002 383.5403)">
		</image>
		<g>
			<path class="st5" d="M804,454.2L804,454.2c2.4,0.6,4.9,1,7.5,1c16.3,0,29.5-13.2,29.5-29.5c0-16.3-13.2-29.5-29.5-29.5
				c-2.6,0-5.1,0.4-7.5,1v0l-0.5,0.2c-1,0.3-2,0.6-2.9,1l-71.5,24.1c-3.1,1-3.1,5.4,0,6.4l71.5,24.1c1,0.4,1.9,0.7,2.9,1L804,454.2z
				"/>
		</g>
	</g>
	<circle class="st1" cx="811.6" cy="425.7" r="9"/>
</g>
</svg>
