<?xml version="1.0" encoding="utf-8"?>
<!-- Generator: Adobe Illustrator 27.2.0, SVG Export Plug-In . SVG Version: 6.00 Build 0)  -->
<svg version="1.1" id="Layer_1" xmlns="http://www.w3.org/2000/svg" xmlns:xlink="http://www.w3.org/1999/xlink" x="0px" y="0px"
	 viewBox="0 0 550 550" style="enable-background:new 0 0 550 550;" xml:space="preserve">
<style type="text/css">
	.st0{opacity:0.57;fill:#513907;enable-background:new    ;}
	.st1{fill:#FFFFFF;}
	.st2{fill:#D8A72B;}
	.st3{fill:url(#SVGID_1_);}
	.st4{fill:url(#SVGID_00000002359685800857126690000007091631889392338312_);}
	.st5{fill:#69C5F7;}
	.st6{filter:url(#Adobe_OpacityMaskFilter);}
	.st7{opacity:0.6;mask:url(#SVGID_00000122680260465454258340000017025242060727434661_);}
	.st8{fill:#E1FFFF;}
</style>
<g>
	<circle class="st0" cx="529.5" cy="285.1" r="6.6"/>
	<g>
		
			<image style="overflow:visible;enable-background:new    ;" width="34" height="34" xlink:href="8C3577E6.png"  transform="matrix(-4.290665e-11 0.9556 -0.9556 -4.290665e-11 546.7792 268.0183)">
		</image>
		<g>
			<circle class="st1" cx="530.8" cy="284.2" r="6.6"/>
		</g>
	</g>
</g>
<path class="st2" d="M283,275c0,4.5-3.7,8-8,8c-4.5,0-8-3.7-8-8c0-4.3,3.7-8,8-8C279.5,266.9,283,270.7,283,275z"/>
<linearGradient id="SVGID_1_" gradientUnits="userSpaceOnUse" x1="9.1449" y1="276.1496" x2="540.8551" y2="276.1496" gradientTransform="matrix(1 0 0 -1 0 551.1496)">
	<stop  offset="0" style="stop-color:#B58D33"/>
	<stop  offset="0.1173" style="stop-color:#F9E169"/>
	<stop  offset="0.2626" style="stop-color:#B58D33"/>
	<stop  offset="0.4385" style="stop-color:#FFFA8C"/>
	<stop  offset="0.6257" style="stop-color:#B58D33"/>
	<stop  offset="0.8715" style="stop-color:#F9E169"/>
	<stop  offset="1" style="stop-color:#FFFA8C"/>
</linearGradient>
<path class="st3" d="M275,9.1C128.1,9.1,9.1,128.1,9.1,275s119,265.9,265.9,265.9s265.9-119,265.9-265.9S421.9,9.1,275,9.1z
	 M275,518.9C140.2,518.9,31.1,409.8,31.1,275S140.2,31.2,275,31.2s243.9,115.5,243.9,243.9C518.9,409.9,409.8,518.9,275,518.9z"/>
<g>
	<circle class="st0" cx="276.8" cy="21.8" r="7.6"/>
	<g>
		
			<image style="overflow:visible;enable-background:new    ;" width="34" height="34" xlink:href="8C3577E6.png"  transform="matrix(1.1088 0 0 1.1088 257.0343 1.8171)">
		</image>
		<g>
			<circle class="st1" cx="275.8" cy="20.5" r="7.6"/>
		</g>
	</g>
</g>
<g>
	<circle class="st0" cx="150.2" cy="55.6" r="7.6"/>
	<g>
		
			<image style="overflow:visible;enable-background:new    ;" width="34" height="34" xlink:href="8C3577E6.png"  transform="matrix(0.9602 -0.5545 0.5545 0.9602 123.0378 48.1013)">
		</image>
		<g>
			<circle class="st1" cx="148.5" cy="54.9" r="7.6"/>
		</g>
	</g>
</g>
<g>
	<circle class="st0" cx="57.5" cy="148.1" r="7.6"/>
	<g>
		
			<image style="overflow:visible;enable-background:new    ;" width="34" height="34" xlink:href="8C3577E6.png"  transform="matrix(0.5545 -0.9602 0.9602 0.5545 30.1356 155.1829)">
		</image>
		<g>
			<circle class="st1" cx="55.6" cy="148.3" r="7.6"/>
		</g>
	</g>
</g>
<g>
	<circle class="st0" cx="23.2" cy="274.6" r="7.6"/>
	<g>
		
			<image style="overflow:visible;enable-background:new    ;" width="34" height="34" xlink:href="8C3577E6.png"  transform="matrix(4.978300e-11 -1.1088 1.1088 4.978300e-11 3.2207 294.3694)">
		</image>
		<g>
			<circle class="st1" cx="21.9" cy="275.7" r="7.6"/>
		</g>
	</g>
</g>
<g>
	<circle class="st0" cx="57" cy="401.2" r="7.6"/>
	<g>
		
			<image style="overflow:visible;enable-background:new    ;" width="34" height="34" xlink:href="8C3577E6.png"  transform="matrix(-0.5545 -0.9602 0.9602 -0.5545 49.505 428.3658)">
		</image>
		<g>
			<circle class="st1" cx="56.3" cy="402.8" r="7.6"/>
		</g>
	</g>
</g>
<g>
	<circle class="st0" cx="149.5" cy="493.9" r="7.6"/>
	<g>
		
			<image style="overflow:visible;enable-background:new    ;" width="34" height="34" xlink:href="8C3577E6.png"  transform="matrix(-0.9602 -0.5545 0.5545 -0.9602 156.5866 521.2681)">
		</image>
		<g>
			<circle class="st1" cx="149.7" cy="495.7" r="7.6"/>
		</g>
	</g>
</g>
<g>
	<circle class="st0" cx="276" cy="528.1" r="7.6"/>
	<g>
		
			<image style="overflow:visible;enable-background:new    ;" width="34" height="34" xlink:href="8C3577E6.png"  transform="matrix(-1.1088 0 0 -1.1088 295.7731 548.1829)">
		</image>
		<g>
			<circle class="st1" cx="277.1" cy="529.6" r="7.6"/>
		</g>
	</g>
</g>
<g>
	<circle class="st0" cx="402.6" cy="494.4" r="7.6"/>
	<g>
		
			<image style="overflow:visible;enable-background:new    ;" width="34" height="34" xlink:href="8C3577E6.png"  transform="matrix(-0.9602 0.5545 -0.5545 -0.9602 429.7695 501.8986)">
		</image>
		<g>
			<circle class="st1" cx="404.2" cy="495.1" r="7.6"/>
		</g>
	</g>
</g>
<g>
	<circle class="st0" cx="495.3" cy="402" r="7.6"/>
	<g>
		
			<image style="overflow:visible;enable-background:new    ;" width="34" height="34" xlink:href="8C3577E6.png"  transform="matrix(-0.5545 0.9602 -0.9602 -0.5545 522.6718 394.8171)">
		</image>
		<g>
			<circle class="st1" cx="497.1" cy="401.7" r="7.6"/>
		</g>
	</g>
</g>
<g>
	<circle class="st0" cx="495.8" cy="148.8" r="7.6"/>
	<g>
		
			<image style="overflow:visible;enable-background:new    ;" width="34" height="34" xlink:href="8C3577E6.png"  transform="matrix(0.5545 0.9602 -0.9602 0.5545 503.3022 121.6341)">
		</image>
		<g>
			<circle class="st1" cx="496.5" cy="147.1" r="7.6"/>
		</g>
	</g>
</g>
<g>
	<circle class="st0" cx="403.4" cy="56.1" r="7.6"/>
	<g>
		
			<image style="overflow:visible;enable-background:new    ;" width="34" height="34" xlink:href="8C3577E6.png"  transform="matrix(0.9602 0.5545 -0.5545 0.9602 396.2208 28.7319)">
		</image>
		<g>
			<circle class="st1" cx="403.1" cy="54.2" r="7.6"/>
		</g>
	</g>
</g>
<g>
	
		<image style="overflow:visible;opacity:0.36;enable-background:new    ;" width="83" height="53" xlink:href="43BA549B.png"  transform="matrix(1.0382 0 0 1.0382 463.8303 247.488)">
	</image>
	<g>
		<g>
			
				<linearGradient id="SVGID_00000004519971493844820390000017127241944987890078_" gradientUnits="userSpaceOnUse" x1="419.6942" y1="189.744" x2="456.5272" y2="189.744" gradientTransform="matrix(6.123234e-17 1 -1 6.123234e-17 693.2701 -162.8361)">
				<stop  offset="0" style="stop-color:#2382DA"/>
				<stop  offset="0.5" style="stop-color:#23A5F9"/>
				<stop  offset="1" style="stop-color:#2270C8"/>
			</linearGradient>
			<path style="fill:url(#SVGID_00000004519971493844820390000017127241944987890078_);" d="M502.7,293.6c0.1,0,0.2,0,0.4,0h7.6
				v-7.6l20.7-7.7c2.7-1.2,2.7-5.1,0-6.4l-20.7-7.7v-7.6h-8l0,0c-0.5,0-1.1,0.1-1.6,0.4l-25.8,15.1c-2.4,1.4-2.4,4.9,0,6.2
				l25.8,14.9c0.4,0.2,0.9,0.4,1.4,0.4l0,0L502.7,293.6L502.7,293.6z"/>
			<g>
				<g>
					<g>
						<g>
							<path class="st5" d="M515.8,287l22.8-8.5c2.7-1.2,2.7-5.1,0-6.4l-22.8-8.5c-1.2-0.7-2-1.9-2-3.2l0,0c0-2.7-3-4.4-5.4-3
								l-25.8,14.9c-2.4,1.4-2.4,4.9,0,6.2l25.8,14.9c2.4,1.4,5.4-0.3,5.4-3l0,0C513.9,288.8,514.6,287.5,515.8,287z"/>
						</g>
					</g>
					<defs>
						<filter id="Adobe_OpacityMaskFilter" filterUnits="userSpaceOnUse" x="480.9" y="256.9" width="59.7" height="36.9">
							<feColorMatrix  type="matrix" values="1 0 0 0 0  0 1 0 0 0  0 0 1 0 0  0 0 0 1 0"/>
						</filter>
					</defs>
					
						<mask maskUnits="userSpaceOnUse" x="480.9" y="256.9" width="59.7" height="36.9" id="SVGID_00000122680260465454258340000017025242060727434661_">
						<g class="st6">
							
								<image style="overflow:visible;enable-background:new    ;" width="319" height="204" xlink:href="EFF0E030.jpg"  transform="matrix(0.198 0 0 0.198 479.2609 255.1504)">
							</image>
						</g>
					</mask>
					<g class="st7">
						<g>
							<path class="st8" d="M515.8,287l22.8-8.5c2.7-1.2,2.7-5.1,0-6.4l-22.8-8.5c-1.2-0.7-2-1.9-2-3.2l0,0c0-2.7-3-4.4-5.4-3
								l-25.8,14.9c-2.4,1.4-2.4,4.9,0,6.2l25.8,14.9c2.4,1.4,5.4-0.3,5.4-3l0,0C513.9,288.8,514.6,287.5,515.8,287z"/>
						</g>
					</g>
				</g>
			</g>
		</g>
	</g>
</g>
</svg>
