<?xml version="1.0" encoding="utf-8"?>
<!-- Generator: Adobe Illustrator 27.2.0, SVG Export Plug-In . SVG Version: 6.00 Build 0)  -->
<svg version="1.1" id="Layer_1" xmlns="http://www.w3.org/2000/svg" xmlns:xlink="http://www.w3.org/1999/xlink" x="0px" y="0px"
	 viewBox="0 0 450 450" style="enable-background:new 0 0 450 450;" xml:space="preserve">
<style type="text/css">
	.st0{opacity:0.57;fill:#513907;enable-background:new    ;}
	.st1{fill:#FFFFFF;}
	.st2{fill:url(#SVGID_1_);}
	.st3{fill:url(#SVGID_00000018233476340494893700000009059606199232951424_);}
	.st4{fill:#69C5F7;}
	.st5{filter:url(#Adobe_OpacityMaskFilter);}
	.st6{opacity:0.6;mask:url(#SVGID_00000096017097425956015580000000784663548514653846_);}
	.st7{fill:#E1FFFF;}
</style>
<g>
	<g>
		<circle class="st0" cx="398.2" cy="232.5" r="5.1"/>
		<g>

				<image style="overflow:visible;enable-background:new    ;" width="34" height="34" xlink:href="8C3577E6.png"  transform="matrix(-3.330731e-11 0.7418 -0.7418 -3.330731e-11 411.6639 219.2433)">
			</image>
			<g>
				<circle class="st1" cx="399.2" cy="231.8" r="5.1"/>
			</g>
		</g>
	</g>
	<g>
		<path class="st1" d="M234,225c0,3.5-2.8,6.2-6.2,6.2c-3.5,0-6.2-2.8-6.2-6.2c0-3.4,2.8-6.2,6.2-6.2C231.3,218.7,234,221.6,234,225
			z"/>

			<linearGradient id="SVGID_1_" gradientUnits="userSpaceOnUse" x1="21.4163" y1="226.3078" x2="434.169" y2="226.3078" gradientTransform="matrix(1 0 0 -1 0 451.1496)">
			<stop  offset="0" style="stop-color:#B58D33"/>
			<stop  offset="0.1173" style="stop-color:#F9E169"/>
			<stop  offset="0.2626" style="stop-color:#B58D33"/>
			<stop  offset="0.4385" style="stop-color:#FFFA8C"/>
			<stop  offset="0.6257" style="stop-color:#B58D33"/>
			<stop  offset="0.8715" style="stop-color:#F9E169"/>
			<stop  offset="1" style="stop-color:#FFFA8C"/>
		</linearGradient>
		<path class="st2" d="M227.8,18.5c-114,0-206.4,92.4-206.4,206.4s92.4,206.4,206.4,206.4s206.4-92.4,206.4-206.4
			S341.8,18.5,227.8,18.5z M227.8,414.2c-104.6,0-189.4-84.7-189.4-189.4S123.2,35.6,227.8,35.6S417.1,125.3,417.1,225
			C417.1,329.6,332.4,414.2,227.8,414.2z"/>
		<g>
			<circle class="st0" cx="227.9" cy="28.1" r="5.9"/>
			<g>

					<image style="overflow:visible;enable-background:new    ;" width="34" height="34" xlink:href="8C3577E6.png"  transform="matrix(0.8607 0 0 0.8607 212.5778 12.5982)">
				</image>
				<g>
					<circle class="st1" cx="227.1" cy="27.1" r="5.9"/>
				</g>
			</g>
		</g>
		<g>
			<circle class="st0" cx="129.6" cy="54.3" r="5.9"/>
			<g>

					<image style="overflow:visible;enable-background:new    ;" width="34" height="34" xlink:href="8C3577E6.png"  transform="matrix(0.7454 -0.4304 0.4304 0.7454 108.5598 48.5274)">
				</image>
				<g>
					<circle class="st1" cx="128.3" cy="53.8" r="5.9"/>
				</g>
			</g>
		</g>
		<g>
			<circle class="st0" cx="57.7" cy="126.2" r="5.9"/>
			<g>

					<image style="overflow:visible;enable-background:new    ;" width="34" height="34" xlink:href="8C3577E6.png"  transform="matrix(0.4304 -0.7454 0.7454 0.4304 36.4423 131.6521)">
				</image>
				<g>
					<circle class="st1" cx="56.2" cy="126.3" r="5.9"/>
				</g>
			</g>
		</g>
		<g>
			<circle class="st0" cx="31.1" cy="224.3" r="5.9"/>
			<g>

					<image style="overflow:visible;enable-background:new    ;" width="34" height="34" xlink:href="8C3577E6.png"  transform="matrix(3.864524e-11 -0.8607 0.8607 3.864524e-11 15.549 239.6989)">
				</image>
				<g>
					<circle class="st1" cx="30.1" cy="225.2" r="5.9"/>
				</g>
			</g>
		</g>
		<g>
			<circle class="st0" cx="57.3" cy="322.6" r="5.9"/>
			<g>

					<image style="overflow:visible;enable-background:new    ;" width="34" height="34" xlink:href="8C3577E6.png"  transform="matrix(-0.4304 -0.7454 0.7454 -0.4304 51.4782 343.7168)">
				</image>
				<g>
					<circle class="st1" cx="56.8" cy="323.9" r="5.9"/>
				</g>
			</g>
		</g>
		<g>
			<circle class="st0" cx="129.1" cy="394.6" r="5.9"/>
			<g>

					<image style="overflow:visible;enable-background:new    ;" width="34" height="34" xlink:href="8C3577E6.png"  transform="matrix(-0.7454 -0.4304 0.4304 -0.7454 134.6029 415.8344)">
				</image>
				<g>
					<circle class="st1" cx="129.2" cy="396" r="5.9"/>
				</g>
			</g>
		</g>
		<g>
			<circle class="st0" cx="227.3" cy="421.2" r="5.9"/>
			<g>

					<image style="overflow:visible;enable-background:new    ;" width="34" height="34" xlink:href="8C3577E6.png"  transform="matrix(-0.8607 0 0 -0.8607 242.6497 436.7277)">
				</image>
				<g>
					<circle class="st1" cx="228.2" cy="422.3" r="5.9"/>
				</g>
			</g>
		</g>
		<g>
			<circle class="st0" cx="325.6" cy="395" r="5.9"/>
			<g>

					<image style="overflow:visible;enable-background:new    ;" width="34" height="34" xlink:href="8C3577E6.png"  transform="matrix(-0.7454 0.4304 -0.4304 -0.7454 346.6676 400.7983)">
				</image>
				<g>
					<circle class="st1" cx="326.9" cy="395.5" r="5.9"/>
				</g>
			</g>
		</g>
		<g>
			<circle class="st0" cx="397.5" cy="323.3" r="5.9"/>
			<g>

					<image style="overflow:visible;enable-background:new    ;" width="34" height="34" xlink:href="8C3577E6.png"  transform="matrix(-0.4304 0.7454 -0.7454 -0.4304 418.7852 317.6738)">
				</image>
				<g>
					<circle class="st1" cx="399" cy="323" r="5.9"/>
				</g>
			</g>
		</g>
		<g>
			<circle class="st0" cx="397.9" cy="126.7" r="5.9"/>
			<g>

					<image style="overflow:visible;enable-background:new    ;" width="34" height="34" xlink:href="8C3577E6.png"  transform="matrix(0.4304 0.7454 -0.7454 0.4304 403.7491 105.6091)">
				</image>
				<g>
					<circle class="st1" cx="398.4" cy="125.4" r="5.9"/>
				</g>
			</g>
		</g>
		<g>
			<circle class="st0" cx="326.2" cy="54.7" r="5.9"/>
			<g>

					<image style="overflow:visible;enable-background:new    ;" width="34" height="34" xlink:href="8C3577E6.png"  transform="matrix(0.7454 0.4304 -0.4304 0.7454 320.6246 33.4915)">
				</image>
				<g>
					<circle class="st1" cx="326" cy="53.3" r="5.9"/>
				</g>
			</g>
		</g>
	</g>
	<g>

			<image style="overflow:visible;opacity:0.36;enable-background:new    ;" width="83" height="53" xlink:href="43BA549B.png"  transform="matrix(0.9809 0 0 0.9809 370.5849 206.0923)">
		</image>
		<g>
			<g>

					<linearGradient id="SVGID_00000080196506424474479090000013599837383549504401_" gradientUnits="userSpaceOnUse" x1="377.7815" y1="185.1797" x2="412.5822" y2="185.1797" gradientTransform="matrix(6.123234e-17 1 -1 6.123234e-17 593.2701 -162.8361)">
					<stop  offset="0" style="stop-color:#2382DA"/>
					<stop  offset="0.5" style="stop-color:#23A5F9"/>
					<stop  offset="1" style="stop-color:#2270C8"/>
				</linearGradient>
				<path style="fill:url(#SVGID_00000080196506424474479090000013599837383549504401_);" d="M407.4,249.7c0.1,0,0.2,0,0.4,0h7.2
					v-7.2l19.5-7.2c2.6-1.2,2.6-4.8,0-6.1l-19.5-7.2v-7.2h-7.5l0,0c-0.5,0-1,0.1-1.5,0.4l-24.3,14.2c-2.3,1.3-2.3,4.6,0,5.8
					l24.3,14.1c0.4,0.2,0.9,0.4,1.3,0.4l0,0L407.4,249.7L407.4,249.7z"/>
				<g>
					<g>
						<g>
							<g>
								<path class="st4" d="M419.7,243.4l21.5-8c2.6-1.2,2.6-4.8,0-6.1l-21.5-8c-1.2-0.6-1.9-1.8-1.9-3l0,0c0-2.6-2.8-4.1-5.1-2.9
									l-24.3,14.1c-2.3,1.3-2.3,4.6,0,5.8l24.3,14.1c2.3,1.3,5.1-0.3,5.1-2.9l0,0C417.9,245.1,418.6,243.9,419.7,243.4z"/>
							</g>
						</g>
						<defs>
							<filter id="Adobe_OpacityMaskFilter" filterUnits="userSpaceOnUse" x="386.8" y="215" width="56.4" height="34.9">
								<feColorMatrix  type="matrix" values="1 0 0 0 0  0 1 0 0 0  0 0 1 0 0  0 0 0 1 0"/>
							</filter>
						</defs>

							<mask maskUnits="userSpaceOnUse" x="386.8" y="215" width="56.4" height="34.9" id="SVGID_00000096017097425956015580000000784663548514653846_">
							<g class="st5">

									<image style="overflow:visible;enable-background:new    ;" width="329" height="214" xlink:href="EFF0E030.jpg"  transform="matrix(0.1871 0 0 0.1871 385.1641 213.3319)">
								</image>
							</g>
						</mask>
						<g class="st6">
							<g>
								<path class="st7" d="M419.7,243.4l21.5-8c2.6-1.2,2.6-4.8,0-6.1l-21.5-8c-1.2-0.6-1.9-1.8-1.9-3l0,0c0-2.6-2.8-4.1-5.1-2.9
									l-24.3,14.1c-2.3,1.3-2.3,4.6,0,5.8l24.3,14.1c2.3,1.3,5.1-0.3,5.1-2.9l0,0C417.9,245.1,418.6,243.9,419.7,243.4z"/>
							</g>
						</g>
					</g>
				</g>
			</g>
		</g>
	</g>
</g>
</svg>
